<?xml version="1.0" encoding="utf-8"?>
<!-- Generator: Adobe Illustrator 23.1.0, SVG Export Plug-In . SVG Version: 6.00 Build 0)  -->
<svg version="1.1" id="Layer_1" xmlns="http://www.w3.org/2000/svg" xmlns:xlink="http://www.w3.org/1999/xlink" x="0px" y="0px"
	 viewBox="0 0 200 100" style="enable-background:new 0 0 200 100;" xml:space="preserve">
<style type="text/css">
	.st0{fill:none;}
	.st1{fill:#FF0000;}
</style>
<path id="SVGID_x5F_1_x5F_" class="st0" d="M51.3,73.32c7.49-15.77,22.82-26.93,39.5-32.09s34.62-4.87,51.88-2.22
	c-10.35-8.71-15.4-13.21-15.17-13.5c0.24-0.31,6.32,4.03,18.24,13.01c-5.75,4.66-11.49,9.33-17.24,13.99"/>
<text><textPath  xlink:href="#SVGID_x5F_1_x5F_" startOffset="4.2619%">
<tspan  style="fill:#00E7DE; font-family:'Rockwell'; font-size:16px;">click me </tspan></textPath>
</text>
<g>
	<g>
		<path class="st1" d="M53.69,74.83c5.28-11.02,14.34-19.69,24.96-25.59c12.1-6.72,25.92-9.53,39.66-9.82
			c8.39-0.18,16.78,0.52,25.06,1.78c1.3,0.2,2.74-1.43,1.46-2.51c-3.25-2.74-6.5-5.48-9.7-8.27c-1.63-1.42-3.31-2.83-4.82-4.39
			c-0.15-0.16-0.29-0.35-0.46-0.5c-0.02-0.02,0.04,0.16,0.08,0.09c0-0.01-0.01-0.01-0.01-0.02c-0.06-0.11-0.02-0.02,0.12,0.29
			c-0.47,0.61-0.93,1.22-1.4,1.83c-0.35-0.06-0.46-0.08-0.33-0.04c-0.09,0.04-0.32-0.19,0.07,0.05c0.23,0.14,0.46,0.27,0.69,0.41
			c1.9,1.2,3.7,2.54,5.52,3.86c3.86,2.81,7.68,5.67,11.5,8.55c-0.1-0.79-0.2-1.57-0.3-2.36c-5.75,4.66-11.49,9.33-17.24,13.99
			c-1.5,1.22,0.63,3.33,2.12,2.12c5.75-4.66,11.49-9.33,17.24-13.99c0.83-0.67,0.38-1.84-0.3-2.36c-3.81-2.87-7.63-5.74-11.5-8.55
			c-1.91-1.39-3.82-2.85-5.85-4.06c-0.48-0.29-1.02-0.62-1.6-0.62c-1.28,0.01-1.9,1.41-1.28,2.44c0.88,1.49,2.63,2.69,3.89,3.81
			c3.76,3.34,7.61,6.58,11.46,9.82c0.49-0.84,0.97-1.67,1.46-2.51c-15.21-2.31-30.86-2.91-45.97,0.45
			c-12.78,2.84-24.97,8.71-34.58,17.69c-5.15,4.81-9.47,10.52-12.52,16.87C50.27,75.05,52.85,76.57,53.69,74.83L53.69,74.83z"/>
	</g>
</g>
</svg>
